<?xml version="1.0" standalone="no"?>
<!DOCTYPE svg PUBLIC "-//W3C//DTD SVG 20010904//EN"
 "http://www.w3.org/TR/2001/REC-SVG-20010904/DTD/svg10.dtd">
<svg version="1.0" xmlns="http://www.w3.org/2000/svg"
 width="256.000000pt" height="256.000000pt" viewBox="0 0 256.000000 256.000000"
 preserveAspectRatio="xMidYMid meet">

<g transform="translate(0.000000,256.000000) scale(0.100000,-0.100000)"
fill="#000000" stroke="none">
<path d="M1025 2074 c-143 -32 -274 -103 -375 -204 -280 -280 -293 -741 -29
-1024 l70 -74 -58 -17 c-153 -45 -208 -108 -146 -167 41 -38 84 -57 187 -83
283 -72 776 -51 1000 42 179 74 346 243 415 420 74 189 65 412 -24 599 -107
223 -371 418 -670 496 -107 27 -276 33 -370 12z m503 -159 c46 -9 115 -34 172
-62 78 -38 109 -61 176 -128 68 -67 90 -98 127 -176 102 -210 102 -411 1 -617
-37 -76 -61 -109 -128 -177 -68 -69 -97 -90 -176 -128 -211 -102 -412 -102
-618 -1 -76 37 -109 61 -177 128 -69 68 -90 97 -128 176 -102 211 -102 412 0
620 135 276 443 426 751 365z"/>
<path d="M824 1383 c3 -10 22 -84 42 -165 36 -146 37 -148 64 -148 28 0 28 1
51 123 l23 122 18 -100 c26 -150 25 -145 56 -145 27 0 28 2 68 165 l41 165
-31 0 -32 0 -18 -97 c-10 -54 -22 -104 -25 -111 -4 -7 -15 37 -26 98 l-18 110
-32 0 -32 0 -17 -89 c-9 -49 -16 -96 -16 -106 0 -9 -4 -14 -8 -11 -5 3 -17 50
-27 105 l-18 101 -34 0 c-28 0 -33 -3 -29 -17z"/>
<path d="M1230 1235 l0 -165 111 0 110 0 -3 28 c-3 27 -4 27 -80 30 l-78 3 0
39 0 39 68 3 c65 3 67 4 70 31 l3 27 -70 0 -71 0 0 35 0 35 75 0 75 0 0 30 0
30 -105 0 -105 0 0 -165z"/>
<path d="M1470 1370 c0 -28 2 -30 40 -30 l40 0 0 -135 0 -135 35 0 35 0 0 135
0 135 40 0 c38 0 40 2 40 30 l0 30 -115 0 -115 0 0 -30z"/>
<path d="M1740 1235 l0 -165 30 0 30 0 0 75 0 75 55 0 55 0 0 -75 0 -75 30 0
30 0 0 165 0 165 -30 0 -30 0 0 -65 0 -65 -55 0 -55 0 0 65 0 65 -30 0 -30 0
0 -165z"/>
</g>
</svg>
